<svg width="25" height="24" viewBox="0 0 25 24" fill="none" xmlns="http://www.w3.org/2000/svg">
<g clip-path="url(#clip0_313_108)">
<path d="M17.6452 4.5C15.6884 4.5 13.5811 4.9 12.1261 6C10.6711 4.9 8.56376 4.5 6.60699 4.5C5.15195 4.5 3.60661 4.72 2.31213 5.29C1.57959 5.62 1.08789 6.33 1.08789 7.14V18.42C1.08789 19.72 2.31213 20.68 3.5765 20.36C4.5599 20.11 5.60352 20 6.60699 20C8.1724 20 9.83817 20.26 11.1828 20.92C11.7849 21.22 12.4673 21.22 13.0593 20.92C14.404 20.25 16.0697 20 17.6351 20C18.6386 20 19.6822 20.11 20.6656 20.36C21.93 20.69 23.1542 19.73 23.1542 18.42V7.14C23.1542 6.33 22.6625 5.62 21.93 5.29C20.6456 4.72 19.1002 4.5 17.6452 4.5ZM21.1573 17.23C21.1573 17.86 20.5753 18.32 19.9532 18.21C19.2006 18.07 18.4179 18.01 17.6452 18.01C15.9393 18.01 13.4808 18.66 12.1261 19.51V8C13.4808 7.15 15.9393 6.5 17.6452 6.5C18.5684 6.5 19.4815 6.59 20.3546 6.78C20.8162 6.88 21.1573 7.29 21.1573 7.76V17.23Z" fill="url(#paint0_linear_313_108)"/>
<path d="M14.1133 11.0099C13.7922 11.0099 13.5012 10.8099 13.4009 10.4899C13.2704 10.0999 13.4912 9.66986 13.8825 9.54986C15.4279 9.04986 17.4248 8.88986 19.2611 9.09986C19.6726 9.14986 19.9736 9.51986 19.9234 9.92986C19.8733 10.3399 19.502 10.6399 19.0906 10.5899C17.4649 10.3999 15.6888 10.5499 14.3441 10.9799C14.2639 10.9899 14.1836 11.0099 14.1133 11.0099Z" fill="url(#paint1_linear_313_108)"/>
<path d="M14.1133 13.67C13.7922 13.67 13.5012 13.47 13.4009 13.15C13.2704 12.76 13.4912 12.33 13.8825 12.21C15.4178 11.71 17.4248 11.55 19.2611 11.76C19.6726 11.81 19.9736 12.18 19.9234 12.59C19.8733 13 19.502 13.3 19.0906 13.25C17.4649 13.06 15.6888 13.21 14.3441 13.64C14.2639 13.66 14.1836 13.67 14.1133 13.67Z" fill="url(#paint2_linear_313_108)"/>
<path d="M14.1133 16.3302C13.7922 16.3302 13.5012 16.1302 13.4009 15.8102C13.2704 15.4202 13.4912 14.9902 13.8825 14.8702C15.4178 14.3702 17.4248 14.2102 19.2611 14.4202C19.6726 14.4702 19.9736 14.8402 19.9234 15.2502C19.8733 15.6602 19.502 15.9502 19.0906 15.9102C17.4649 15.7202 15.6888 15.8702 14.3441 16.3002C14.2639 16.3202 14.1836 16.3302 14.1133 16.3302Z" fill="url(#paint3_linear_313_108)"/>
</g>
<defs>
<linearGradient id="paint0_linear_313_108" x1="12.1211" y1="4.5" x2="12.1211" y2="21.145" gradientUnits="userSpaceOnUse">
<stop stop-color="#C900A9"/>
<stop offset="1" stop-color="#800ADD"/>
</linearGradient>
<linearGradient id="paint1_linear_313_108" x1="16.6461" y1="9.00977" x2="16.6461" y2="11.0099" gradientUnits="userSpaceOnUse">
<stop stop-color="#C900A9"/>
<stop offset="1" stop-color="#800ADD"/>
</linearGradient>
<linearGradient id="paint2_linear_313_108" x1="16.6461" y1="11.6699" x2="16.6461" y2="13.67" gradientUnits="userSpaceOnUse">
<stop stop-color="#C900A9"/>
<stop offset="1" stop-color="#800ADD"/>
</linearGradient>
<linearGradient id="paint3_linear_313_108" x1="16.6461" y1="14.3301" x2="16.6461" y2="16.3302" gradientUnits="userSpaceOnUse">
<stop stop-color="#C900A9"/>
<stop offset="1" stop-color="#800ADD"/>
</linearGradient>
<clipPath id="clip0_313_108">
<rect width="24.0833" height="24" fill="white" transform="translate(0.0839844)"/>
</clipPath>
</defs>
</svg>
