<svg width="25" height="24" viewBox="0 0 25 24" fill="none" xmlns="http://www.w3.org/2000/svg">
<g clip-path="url(#clip0_313_123)">
<path d="M12.7783 15.67C12.9188 15.31 12.8285 14.9 12.5475 14.62L10.4503 12.56L10.4804 12.53C12.2264 10.59 13.4707 8.36 14.2033 6H16.15C16.6919 6 17.1434 5.55 17.1434 5.01V4.99C17.1434 4.45 16.6919 4 16.15 4H10.1191V3C10.1191 2.45 9.66758 2 9.11567 2C8.56376 2 8.1122 2.45 8.1122 3V4H2.08133C1.53945 4 1.08789 4.45 1.08789 4.99C1.08789 5.54 1.53945 5.98 2.08133 5.98H12.2967C11.6243 7.92 10.5607 9.75 9.11567 11.35C8.30286 10.46 7.62049 9.49 7.04852 8.47C6.88796 8.18 6.59695 8 6.26581 8C5.57341 8 5.13188 8.75 5.47306 9.35C6.10525 10.48 6.87793 11.56 7.78105 12.56L3.39588 16.87C2.99449 17.26 2.99449 17.9 3.39588 18.29C3.78723 18.68 4.41942 18.68 4.82081 18.29L9.11567 14L11.1427 16.02C11.6545 16.53 12.5275 16.34 12.7783 15.67ZM17.6452 10C17.0431 10 16.5012 10.37 16.2905 10.94L12.6078 20.74C12.3669 21.35 12.8285 22 13.4808 22C13.8721 22 14.2233 21.76 14.3638 21.39L15.2569 19H20.0234L20.9265 21.39C21.067 21.75 21.4182 22 21.8096 22C22.4618 22 22.9234 21.35 22.6926 20.74L19.0099 10.94C18.7891 10.37 18.2473 10 17.6452 10ZM16.0196 17L17.6452 12.67L19.2708 17H16.0196Z" fill="url(#paint0_linear_313_123)"/>
</g>
<defs>
<linearGradient id="paint0_linear_313_123" x1="11.9204" y1="2" x2="11.9204" y2="22" gradientUnits="userSpaceOnUse">
<stop stop-color="#C900A9"/>
<stop offset="1" stop-color="#800ADD"/>
</linearGradient>
<clipPath id="clip0_313_123">
<rect width="24.0833" height="24" fill="white" transform="translate(0.0839844)"/>
</clipPath>
</defs>
</svg>
