<svg width="244" height="38" viewBox="0 0 244 38" fill="none" xmlns="http://www.w3.org/2000/svg">
<path d="M35.144 37H27.416L26.84 23.992C26.68 20.888 26.6 18.12 26.6 15.688C26.6 13.832 26.648 12.072 26.744 10.408L21.608 33.496H14.168L8.696 10.408C8.888 13.192 8.984 15.816 8.984 18.28C8.984 20.136 8.936 22.072 8.84 24.088L8.264 37H0.584L3.08 3.736H13.016L18.008 26.296L22.664 3.736H32.648L35.144 37ZM63.6144 37H57.0384L56.7024 33.784C54.8464 36.472 52.2704 37.816 48.9744 37.816C46.6384 37.816 44.8624 37.112 43.6464 35.704C42.4624 34.296 41.8704 32.328 41.8704 29.8V11.512H49.4544V28.84C49.4544 30.088 49.6464 30.968 50.0304 31.48C50.4464 31.96 51.0704 32.2 51.9024 32.2C53.5024 32.2 54.8784 31.208 56.0304 29.224V11.512H63.6144V37ZM78.7471 37.816C76.5391 37.816 74.8111 37.192 73.5631 35.944C72.3471 34.664 71.7391 32.856 71.7391 30.52V1.384L79.3231 0.567997V30.232C79.3231 31.288 79.7551 31.816 80.6191 31.816C81.0671 31.816 81.4831 31.736 81.8671 31.576L83.3551 36.952C81.9791 37.528 80.4431 37.816 78.7471 37.816ZM95.3971 37.816C93.1891 37.816 91.4611 37.192 90.2131 35.944C88.9971 34.664 88.3891 32.856 88.3891 30.52V1.384L95.9731 0.567997V30.232C95.9731 31.288 96.4051 31.816 97.2691 31.816C97.7171 31.816 98.1331 31.736 98.5171 31.576L100.005 36.952C98.6291 37.528 97.0931 37.816 95.3971 37.816ZM127.269 23.752C127.269 24.808 127.221 25.72 127.125 26.488H111.333C111.589 28.632 112.197 30.136 113.157 31C114.117 31.864 115.445 32.296 117.141 32.296C118.165 32.296 119.157 32.12 120.117 31.768C121.077 31.384 122.117 30.808 123.237 30.04L126.357 34.264C123.381 36.632 120.069 37.816 116.421 37.816C112.293 37.816 109.125 36.6 106.917 34.168C104.709 31.736 103.605 28.472 103.605 24.376C103.605 21.784 104.069 19.464 104.997 17.416C105.925 15.336 107.285 13.704 109.077 12.52C110.869 11.304 113.013 10.696 115.509 10.696C119.189 10.696 122.069 11.848 124.149 14.152C126.229 16.456 127.269 19.656 127.269 23.752ZM119.829 21.592C119.765 17.688 118.389 15.736 115.701 15.736C114.389 15.736 113.365 16.216 112.629 17.176C111.925 18.136 111.493 19.72 111.333 21.928H119.829V21.592ZM147.753 10.792C148.681 10.792 149.529 10.904 150.297 11.128L149.097 18.472C148.137 18.248 147.369 18.136 146.793 18.136C145.289 18.136 144.137 18.664 143.337 19.72C142.569 20.744 141.961 22.296 141.513 24.376V37H133.929V11.512H140.553L141.177 16.456C141.753 14.696 142.617 13.32 143.769 12.328C144.953 11.304 146.281 10.792 147.753 10.792ZM173.595 37V22.744H163.611V37H155.739V3.736H163.611V16.6H173.595V3.736H181.467V37H173.595ZM211.468 37H204.892L204.556 33.784C202.7 36.472 200.124 37.816 196.828 37.816C194.492 37.816 192.716 37.112 191.5 35.704C190.316 34.296 189.724 32.328 189.724 29.8V11.512H197.308V28.84C197.308 30.088 197.5 30.968 197.884 31.48C198.3 31.96 198.924 32.2 199.756 32.2C201.356 32.2 202.732 31.208 203.884 29.224V11.512H211.468V37ZM234.28 10.696C237.32 10.696 239.656 11.896 241.288 14.296C242.92 16.664 243.736 19.992 243.736 24.28C243.736 26.904 243.32 29.24 242.488 31.288C241.688 33.336 240.52 34.936 238.984 36.088C237.48 37.24 235.688 37.816 233.608 37.816C232.232 37.816 230.968 37.528 229.816 36.952C228.696 36.376 227.736 35.576 226.936 34.552L226.552 37H219.832V1.384L227.416 0.567997V14.104C228.184 13.048 229.16 12.216 230.344 11.608C231.56 11 232.872 10.696 234.28 10.696ZM231.4 32.296C234.376 32.296 235.864 29.624 235.864 24.28C235.864 21.24 235.512 19.144 234.808 17.992C234.104 16.84 233.08 16.264 231.736 16.264C230.04 16.264 228.6 17.256 227.416 19.24V29.848C227.896 30.616 228.472 31.224 229.144 31.672C229.848 32.088 230.6 32.296 231.4 32.296Z" fill="url(#paint0_linear_313_135)"/>
<defs>
<linearGradient id="paint0_linear_313_135" x1="122.5" y1="-9" x2="122.5" y2="51" gradientUnits="userSpaceOnUse">
<stop stop-color="#C900A9"/>
<stop offset="1" stop-color="#800ADD"/>
</linearGradient>
</defs>
</svg>
